<svg width="48" height="48" viewBox="0 0 48 48" fill="none" xmlns="http://www.w3.org/2000/svg">
<rect width="48" height="48" fill="white"/>
<path d="M4 34.5L44.5 34" stroke="#6E8860" stroke-width="2"/>
<path d="M4 24.5L44.5 24" stroke="#6E8860" stroke-width="2"/>
<path d="M16 15L16 44" stroke="#6E8860" stroke-width="2"/>
<path d="M32 15L32 44" stroke="#6E8860" stroke-width="2"/>
<path d="M12.0107 3.7501L36.3007 3.5729C40.995 3.53866 44.8282 7.31638 44.8625 12.0107L45.0757 41.2369C45.0898 43.1699 43.5342 44.7483 41.6013 44.7624L7.31155 45.0125C5.3786 45.0266 3.80021 43.4711 3.78611 41.5381L3.57291 12.3119C3.53866 7.61758 7.31638 3.78434 12.0107 3.7501Z" stroke="#667638" stroke-width="3"/>
<path d="M44.4933 13.8672L2.0018 14.577" stroke="#667638" stroke-width="3"/>
<path d="M19 9L28.4999 9.00001" stroke="#6E8860" stroke-width="3" stroke-linecap="round"/>
</svg>
