<svg width="48" height="48" viewBox="0 0 48 48" fill="none" xmlns="http://www.w3.org/2000/svg">
<path d="M22.5979 10.8541C23.1966 9.01148 25.8034 9.01148 26.4021 10.8541L28.6535 17.7832C28.9213 18.6072 29.6892 19.1652 30.5556 19.1652H37.8413C39.7787 19.1652 40.5843 21.6444 39.0169 22.7832L33.1226 27.0656C32.4217 27.5749 32.1283 28.4776 32.3961 29.3017L34.6475 36.2308C35.2462 38.0734 33.1372 39.6056 31.5698 38.4668L25.6756 34.1844C24.9746 33.6751 24.0254 33.6751 23.3244 34.1844L17.4302 38.4668C15.8628 39.6056 13.7538 38.0734 14.3525 36.2307L16.6039 29.3017C16.8717 28.4776 16.5783 27.5749 15.8774 27.0656L9.98313 22.7832C8.41571 21.6444 9.22126 19.1652 11.1587 19.1652H18.4444C19.3108 19.1652 20.0787 18.6072 20.3465 17.7832L22.5979 10.8541Z" fill="#E6B74A"/>
</svg>
