<svg width="48" height="48" viewBox="0 0 48 48" fill="none" xmlns="http://www.w3.org/2000/svg">
<mask id="path-1-inside-1" fill="white">
<path fill-rule="evenodd" clip-rule="evenodd" d="M19.465 7C18.5928 7 17.8212 7.56522 17.5582 8.39681L16.5714 11.5161H4C1.79086 11.5161 0 13.307 0 15.5161V38C0 40.2091 1.79086 42 4 42H44C46.2091 42 48 40.2091 48 38V15.5161C48 13.307 46.2091 11.5161 44 11.5161H31.3025L30.2747 8.37755C30.0055 7.55575 29.2387 7 28.374 7H19.465Z"/>
</mask>
<path d="M17.5582 8.39681L20.4185 9.3016L20.4185 9.30159L17.5582 8.39681ZM16.5714 11.5161V14.5161H18.769L19.4317 12.4209L16.5714 11.5161ZM31.3025 11.5161L28.4515 12.4498L29.1282 14.5161H31.3025V11.5161ZM30.2747 8.37755L27.4237 9.31122L27.4237 9.31123L30.2747 8.37755ZM20.4185 9.30159C20.2869 9.71739 19.9011 10 19.465 10V4C17.2845 4 15.3555 5.41305 14.6978 7.49202L20.4185 9.30159ZM19.4317 12.4209L20.4185 9.3016L14.6978 7.49202L13.7111 10.6113L19.4317 12.4209ZM4 14.5161H16.5714V8.51613H4V14.5161ZM3 15.5161C3 14.9638 3.44771 14.5161 4 14.5161V8.51613C0.134008 8.51613 -3 11.6501 -3 15.5161H3ZM3 38V15.5161H-3V38H3ZM4 39C3.44771 39 3 38.5523 3 38H-3C-3 41.866 0.134006 45 4 45V39ZM44 39H4V45H44V39ZM45 38C45 38.5523 44.5523 39 44 39V45C47.866 45 51 41.866 51 38H45ZM45 15.5161V38H51V15.5161H45ZM44 14.5161C44.5523 14.5161 45 14.9638 45 15.5161H51C51 11.6501 47.866 8.51613 44 8.51613V14.5161ZM31.3025 14.5161H44V8.51613H31.3025V14.5161ZM27.4237 9.31123L28.4515 12.4498L34.1535 10.5825L33.1257 7.44387L27.4237 9.31123ZM28.374 10C27.9416 10 27.5582 9.72213 27.4237 9.31122L33.1257 7.44387C32.4528 5.38938 30.5358 4 28.374 4V10ZM19.465 10H28.374V4H19.465V10Z" fill="#667638" mask="url(#path-1-inside-1)"/>
<path d="M31 27.5C31 31.03 27.9278 34 24 34C20.0722 34 17 31.03 17 27.5C17 23.97 20.0722 21 24 21C27.9278 21 31 23.97 31 27.5Z" stroke="#6E8860" stroke-width="2"/>
<path d="M34 18C36 18 38 18 40 18" stroke="#667638" stroke-width="2" stroke-linecap="round" stroke-linejoin="round"/>
</svg>
